<?xml version="1.0" encoding="UTF-8" standalone="no"?>
<!-- Created with Inkscape (http://www.inkscape.org/) -->

<svg
   xmlns:dc="http://purl.org/dc/elements/1.1/"
   xmlns:cc="http://creativecommons.org/ns#"
   xmlns:rdf="http://www.w3.org/1999/02/22-rdf-syntax-ns#"
   xmlns:svg="http://www.w3.org/2000/svg"
   xmlns="http://www.w3.org/2000/svg"
   xmlns:sodipodi="http://sodipodi.sourceforge.net/DTD/sodipodi-0.dtd"
   xmlns:inkscape="http://www.inkscape.org/namespaces/inkscape"
   width="300mm"
   height="300mm"
   viewBox="0 0 300 300"
   version="1.1"
   id="svg8"
   inkscape:version="0.92.4 (5da689c313, 2019-01-14)"
   sodipodi:docname="Xylocopa icon.svg">
  <defs
     id="defs2" />
  <sodipodi:namedview
     id="base"
     pagecolor="#ffffff"
     bordercolor="#666666"
     borderopacity="1.0"
     inkscape:pageopacity="0.0"
     inkscape:pageshadow="2"
     inkscape:zoom="0.24748737"
     inkscape:cx="115.08917"
     inkscape:cy="503.52141"
     inkscape:document-units="mm"
     inkscape:current-layer="layer1"
     showgrid="false"
     inkscape:window-width="1366"
     inkscape:window-height="715"
     inkscape:window-x="-8"
     inkscape:window-y="-8"
     inkscape:window-maximized="1" />
  <metadata
     id="metadata5">
    <rdf:RDF>
      <cc:Work
         rdf:about="">
        <dc:format>image/svg+xml</dc:format>
        <dc:type
           rdf:resource="http://purl.org/dc/dcmitype/StillImage" />
        <dc:title></dc:title>
      </cc:Work>
    </rdf:RDF>
  </metadata>
  <g
     inkscape:label="Layer 1"
     inkscape:groupmode="layer"
     id="layer1"
     transform="translate(0,3)">
    <path
       inkscape:connector-curvature="0"
       id="path828"
       d="m 134.35029,216.02175 c -0.2249,-0.40187 -0.33322,-0.41713 -0.71449,-0.10072 -0.38011,0.31545 -0.53083,0.29928 -0.97741,-0.10483 -0.38642,-0.34971 -0.66472,-0.40611 -1.03794,-0.21035 -0.71291,0.37393 -1.66296,-0.0547 -1.8331,-0.82686 -0.0785,-0.35645 -0.14427,-1.68875 -0.14607,-2.96068 -0.003,-2.37846 -0.13565,-2.8701 -0.63722,-2.36853 -0.17403,0.17403 -0.72235,0.20976 -1.37827,0.0898 -1.1063,-0.20231 -1.93979,0.25592 -1.93979,1.06644 0,0.1792 -0.19771,0.32581 -0.43936,0.32581 -0.34347,0 -0.39936,-0.18215 -0.25608,-0.83453 0.2055,-0.93565 -0.25452,-1.11462 -1.25653,-0.48884 -0.79046,0.49364 -1.50255,-0.0373 -1.62049,-1.20829 -0.1135,-1.12686 0.38219,-3.51976 0.97549,-4.70903 0.24448,-0.49009 0.35222,-1.14378 0.25341,-1.53749 -0.15455,-0.61578 -0.28279,-0.67102 -1.27012,-0.54695 -1.57108,0.1974 -2.48308,-0.22575 -2.6873,-1.24684 -0.0929,-0.46472 -0.27799,-0.9123 -0.41123,-0.99464 -0.39211,-0.24234 -0.2851,-1.21248 0.45591,-4.13366 0.66522,-2.62237 0.67506,-2.77364 0.20864,-3.20671 -0.26924,-0.24998 -0.72527,-0.54455 -1.0134,-0.6546 -0.44248,-0.16898 -0.49773,-0.39076 -0.35563,-1.42751 0.14001,-1.02149 0.0879,-1.24291 -0.31067,-1.31966 -0.53483,-0.10304 -0.6498,-0.84806 -0.61404,-3.97911 0.0233,-2.04072 0.43377,-3.5661 1.5532,-5.77222 0.71412,-1.40736 0.69589,-1.51702 -0.16309,-0.98059 -0.78125,0.48789 -1.29049,-0.0511 -0.8413,-0.89038 0.26528,-0.49568 0.23999,-0.70453 -0.13549,-1.11944 -0.37173,-0.41076 -0.39937,-0.62638 -0.14196,-1.10736 0.2174,-0.40621 0.22956,-0.70584 0.038,-0.93664 -0.18969,-0.22856 -0.19032,-0.88127 -0.002,-1.99901 0.15385,-0.91281 0.27489,-2.02993 0.26901,-2.4825 -0.006,-0.45257 0.2222,-1.21761 0.50688,-1.70011 0.28695,-0.48635 0.60632,-1.7607 0.71669,-2.85981 0.24387,-2.42834 1.03059,-3.63594 3.28925,-5.04892 0.85598,-0.53551 1.56234,-1.06752 1.5697,-1.18226 0.0212,-0.33105 -0.61407,-0.24068 -1.47887,0.21034 -0.43824,0.22855 -1.1644,0.41556 -1.61372,0.41556 -0.67133,0 -0.88973,0.17423 -1.22539,0.97758 -0.35121,0.84056 -0.50516,0.95329 -1.09852,0.80437 -0.63948,-0.1605 -0.69004,-0.0994 -0.69004,0.83436 0,0.91305 -0.15804,1.39322 -0.87844,2.66908 -0.12958,0.22949 -0.35277,0.68676 -0.49596,1.01615 -0.14319,0.32937 -0.39372,0.68129 -0.55671,0.78204 -0.163,0.10072 -0.22317,0.47478 -0.13371,0.83121 0.0894,0.35641 0.0273,0.73168 -0.13807,0.8339 -0.16539,0.10219 -0.30072,0.47609 -0.30072,0.83082 0,0.35473 -0.17508,0.79027 -0.38906,0.96787 -0.21399,0.17759 -0.45325,0.78752 -0.53168,1.3554 -0.36235,2.62328 -0.55214,2.97335 -1.66228,3.06611 -0.56831,0.0475 -1.03329,0.21988 -1.03329,0.38312 0,0.16324 0.39431,1.09777 0.87626,2.07675 l 0.87626,1.77995 -0.61598,0.65568 -0.61599,0.65569 0.61449,2.02308 c 0.52958,1.7435 0.56715,2.15401 0.27192,2.97047 -0.18842,0.52107 -0.37452,2.44148 -0.41355,4.26758 -0.0568,2.65807 -0.1648,3.42386 -0.54146,3.84006 -0.356,0.39337 -0.42677,0.79331 -0.29083,1.64346 0.15562,0.97316 0.0975,1.16755 -0.43421,1.4521 -0.40867,0.21873 -0.56762,0.50546 -0.47548,0.85778 0.0761,0.29108 -0.0998,0.83212 -0.39106,1.20232 -0.2912,0.37019 -0.52944,0.92877 -0.52944,1.24128 0,0.31252 -0.18527,0.67188 -0.41169,0.7986 -0.22643,0.12671 -0.70879,0.63308 -1.0719,1.12527 -0.6056,0.82082 -0.65515,1.13052 -0.59889,3.743 l 0.0613,2.84812 1.60064,1.45462 c 1.06688,0.96956 1.54592,1.5972 1.43656,1.88219 -0.23075,0.60133 -1.49138,0.53168 -2.33105,-0.12881 -0.95322,-0.74979 -2.45132,-0.70248 -3.89506,0.12302 -1.28428,0.73432 -3.55258,1.06982 -3.55258,0.52545 0,-0.33833 2.17523,-2.09719 2.9438,-2.38032 0.35092,-0.12928 0.45142,-0.67083 0.49555,-2.67057 0.0328,-1.48428 -0.0618,-2.58081 -0.23156,-2.68573 -0.15781,-0.0976 -0.28691,-0.53108 -0.28691,-0.96345 0,-0.5387 -0.2266,-0.9346 -0.71997,-1.25786 -0.56049,-0.36725 -0.6823,-0.62178 -0.54994,-1.14916 0.13856,-0.55204 0.0347,-0.72884 -0.56094,-0.95532 -0.57954,-0.22034 -0.69787,-0.40981 -0.57119,-0.91456 0.10846,-0.43211 -0.0155,-0.78675 -0.38589,-1.10387 -0.51928,-0.44462 -0.5236,-0.51349 -0.0894,-1.42407 0.42327,-0.88761 0.4231,-0.99006 -0.002,-1.41544 -0.25226,-0.25221 -0.45862,-0.62401 -0.45862,-0.8262 0,-0.2022 -0.20197,-0.44514 -0.44883,-0.53988 -0.32209,-0.12359 -0.39207,-0.348 -0.24781,-0.79475 0.18869,-0.58434 0.39039,-2.6445 0.48846,-4.98903 0.027,-0.64549 -0.14144,-1.2322 -0.45244,-1.57585 -0.472263,-0.52184 -0.472979,-0.61877 -0.0152,-2.07103 0.30363,-0.9632 0.39418,-1.71369 0.24621,-2.04048 -0.12872,-0.2843 -0.25264,-0.64209 -0.27538,-0.79509 -0.0227,-0.153 -0.14134,-0.63837 -0.263583,-1.07859 -0.15501,-0.55829 -0.09185,-1.02116 0.208773,-1.53008 0.23706,-0.40132 0.37067,-1.04535 0.29691,-1.43121 -0.0872,-0.45604 0.0767,-0.96963 0.46843,-1.46757 0.6965,-0.88544 1.9417,-3.16081 1.9417,-3.54808 0,-0.1449 -0.28902,-0.26345 -0.64228,-0.26345 -0.35325,0 -0.87832,-0.1726 -1.1668,-0.38355 -0.50263,-0.36751 -0.50424,-0.4145 -0.0386,-1.12517 0.26727,-0.40791 0.55947,-1.36255 0.64935,-2.12144 0.143,-1.20736 0.2889,-1.45781 1.16768,-2.00431 0.91554,-0.56937 0.94897,-0.6324 0.37836,-0.71343 -0.92396,-0.13123 -0.76102,-0.82378 0.34772,-1.47796 0.93714,-0.55293 1.27517,-1.07585 0.69545,-1.07585 -0.63977,0 -0.2126,-0.88635 0.55635,-1.1544 0.459,-0.16 0.85019,-0.40385 0.86931,-0.54189 0.0191,-0.13802 0.0661,-0.37614 0.10432,-0.52914 0.0382,-0.15299 0.0852,-0.38979 0.10432,-0.52621 0.0191,-0.1364 0.3441,-0.32566 0.72218,-0.42055 0.37808,-0.0948 0.82569,-0.43088 0.99469,-0.74665 0.53341,-0.99669 2.33788,-2.62765 3.33704,-3.01618 0.52893,-0.20568 1.21206,-0.66269 1.51806,-1.0156 0.30599,-0.3529 0.86645,-0.75584 1.24546,-0.89544 0.46504,-0.17126 0.69116,-0.4684 0.69544,-0.91384 0.005,-0.53016 0.19795,-0.69814 0.97996,-0.85359 2.67116,-0.53094 3.50711,-0.87672 4.63657,-1.91782 1.13913,-1.05002 1.55931,-1.25988 2.17881,-1.08825 0.25695,0.0712 0.87337,0.12986 3.47631,0.33094 0.90815,0.0701 1.01797,-0.0138 1.65502,-1.26504 0.57778,-1.13485 0.62054,-1.37925 0.2791,-1.59527 -0.61323,-0.38795 -0.8585,-0.31742 -1.01806,0.29274 -0.17942,0.6861 -0.78843,0.72738 -1.02623,0.0695 -0.62939,-1.74107 -1.97616,-2.81556 -2.90557,-2.31814 -0.28125,0.15051 -1.06324,0.46393 -1.73777,0.69648 -1.51306,0.52166 -3.02468,0.19792 -3.82468,-0.81911 -0.29797,-0.37881 -0.59641,-0.68874 -0.6632,-0.68874 -0.0668,0 -0.54639,0.59461 -1.06577,1.32134 -1.62123,2.26855 -4.62275,5.7411 -5.59032,6.46765 -1.72377,1.29441 -3.70659,2.51975 -5.24316,3.24019 -0.84149,0.39454 -1.78428,0.94964 -2.09509,1.23356 -0.44795,0.4092 -1.21655,0.55578 -3.707586,0.70707 l -3.142494,0.19087 -1.160534,1.34761 c -0.638291,0.74118 -1.301678,1.34768 -1.474192,1.34775 -0.172512,7e-5 -0.472281,0.19126 -0.666149,0.42486 -0.513879,0.61918 -2.741638,2.07889 -3.172751,2.07889 -0.203092,0 -0.525095,0.18776 -0.715563,0.41726 -0.190464,0.2295 -0.492681,0.41727 -0.671588,0.41727 -0.483169,0 -2.666553,2.31552 -2.666553,2.82793 0,0.2433 0.272289,0.62315 0.605089,0.84412 0.908845,0.60344 0.493792,1.39581 -0.672252,1.28338 -0.695675,-0.067 -1.063039,-0.33146 -1.585226,-1.14086 -0.595296,-0.92274 -0.77811,-1.03195 -1.472209,-0.87949 -1.057932,0.23235 -2.227156,-0.51807 -2.108293,-1.35313 0.07399,-0.51982 0.238321,-0.59646 1.129519,-0.52677 0.940933,0.0736 1.199386,-0.0735 2.642696,-1.50337 0.87987,-0.8717 1.349405,-1.48181 1.043408,-1.35579 -0.981527,0.40422 -8.478901,0.3802 -10.292605,-0.033 -6.095773,-0.89406 -12.845517,-3.77553 -16.884228,-8.13419 -2.750272,-2.94226 -3.167891,-4.517 -2.040493,-7.69429 0.415129,-1.16995 0.71207,-2.15721 0.659859,-2.19391 -0.279037,-0.19613 -5.098958,-0.72585 -6.604517,-0.72585 -11.122008,-0.8134 -26.758844,-9.78763 -31.644834,-18.63796 -0.291895,-0.53549 -0.843409,-1.47435 -1.225597,-2.08634 -1.523118,-2.43894 -2.764024,-5.60932 -2.764024,-7.06176 0,-0.43083 -0.125093,-1.14623 -0.277975,-1.58981 -0.2171,-0.62986 -0.140013,-1.25796 0.35194,-2.86779 0.626898,-2.05138 0.640251,-2.06853 2.780457,-3.56961 1.746979,-1.22529 2.685801,-1.65692 5.002987,-2.30014 3.069377,-0.85202 5.914621,-1.42655 9.667839,-1.95218 21.13391,-3.416287 39.393867,7.11392 58.973851,11.4689 1.33117,0.28793 3.425257,0.82395 5.70266,1.4597 0.76499,0.21355 3.143415,0.79431 5.285388,1.29058 2.14198,0.49627 4.01342,1.00679 4.15877,1.1345 0.14535,0.12771 0.5463,0.2322 0.89099,0.2322 0.3447,0 0.91427,0.11215 1.26572,0.2492 1.38317,0.53945 11.17398,2.94535 13.07688,3.2134 1.42701,0.20101 2.44465,-0.15121 2.44465,-0.84611 0,-0.23315 -0.12518,-0.34653 -0.27818,-0.25198 -0.50385,0.3114 -0.85817,-0.13149 -0.55636,-0.69544 0.18688,-0.34919 0.18713,-0.5798 8.4e-4,-0.69499 -0.59376,-0.36696 -0.23365,-0.92953 0.74285,-1.16046 1.38826,-0.32832 1.55171,-0.92633 0.2532,-0.92633 -1.17191,0 -1.34584,-0.60182 -0.39618,-1.37081 0.68575,-0.55529 0.45954,-1.2567 -0.33803,-1.04812 -0.28604,0.0748 -0.71784,-0.0975 -0.98535,-0.39304 -0.26198,-0.28939 -0.71032,-0.52617 -0.99639,-0.52617 -0.29885,0 -0.63262,-0.29589 -0.78454,-0.69546 -0.14542,-0.38249 -0.37089,-0.69544 -0.50103,-0.69544 -0.40175,0 -3.95372,-3.45486 -3.95171,-3.84367 0.003,-0.50081 -1.72303,-2.54321 -2.15399,-2.54943 -0.19125,-0.003 -0.34773,-0.29293 -0.34773,-0.64482 0,-0.86172 -0.50202,-1.30744 -1.47257,-1.30744 -0.56522,0 -0.84736,-0.1622 -0.94737,-0.54464 -0.11215,-0.42887 -0.35562,-0.53235 -1.14549,-0.48681 -0.75323,0.0434 -1.02767,-0.0611 -1.10189,-0.41944 -0.14363,-0.69362 -1.59766,-2.16543 -2.13925,-2.16543 -0.25489,0 -0.87664,-0.438127 -1.38167,-0.973617 -0.50504,-0.5355 -1.01115,-0.97363 -1.1247,-0.97363 -0.11355,0 -0.78726,-0.59282 -1.49714,-1.31738 -0.70988,-0.72455 -1.90495,-1.60417 -2.655727,-1.95469 l -1.365034,-0.63733 -0.600139,0.56381 c -0.648392,0.60913 -1.670187,0.74674 -1.967902,0.26503 -0.101553,-0.16432 0.108506,-0.61082 0.466808,-0.99222 l 0.651461,-0.69343 -0.675481,-0.50952 -0.675485,-0.50952 0.957246,-0.59976 c 1.161846,-0.72797 3.097067,-0.59934 4.019393,0.26715 0.32452,0.30487 0.69907,0.55431 0.83236,0.55431 0.13327,0 0.51151,0.25289 0.84053,0.56198 0.54657,0.51349 0.72109,0.53363 2.02179,0.23339 1.16428,-0.26874 1.50783,-0.25868 1.88609,0.0552 0.5367,0.44542 2.14467,1.08515 3.25262,1.29406 0.42262,0.0797 0.83684,0.25564 0.9205,0.39099 0.0836,0.13537 0.45478,0.24611 0.82471,0.24611 0.4105,0 0.8502,0.27102 1.12829,0.69545 0.25063,0.38249 0.70487,0.69545 1.00943,0.69545 0.30457,0 0.93278,0.31893 1.39605,0.70873 0.46326,0.38981 1.32629,0.95567 1.91785,1.25746 l 1.07557,0.54871 v -0.68468 c 0,-0.37657 0.11967,-0.75863 0.26594,-0.84903 0.4243,-0.26224 2.23767,0.61666 2.23767,1.08453 0,0.23379 0.34424,0.64333 0.76499,0.91012 1.39357,0.883637 5.26924,4.937487 5.45553,5.706327 0.17311,0.71445 1.96331,2.72315 2.42694,2.72315 0.11922,0 0.29696,-0.25269 0.39498,-0.56153 0.12121,-0.3819 -0.0508,-0.83367 -0.53769,-1.41233 -0.39375,-0.46795 -0.78422,-1.18541 -0.8677,-1.59436 -0.0835,-0.40895 -0.32811,-1.43205 -0.5436,-2.27353 -0.77912,-3.042547 -0.75267,-3.874747 0.18366,-5.775617 0.59365,-1.20522 1.28739,-2.08385 2.2513,-2.85133 0.76628,-0.61012 1.49391,-1.1093 1.61696,-1.1093 0.12305,0 0.55844,-0.12726 0.96752,-0.28279 0.58876,-0.22384 0.67774,-0.36238 0.42688,-0.66465 -0.1743,-0.21001 -0.65733,-0.46253 -1.0734,-0.56114 -4.08058,-0.96708 -5.12933,-1.05235 -13.44041,-1.09276 -8.97335,-0.0436 -9.43128,-0.10787 -9.43128,-1.32349 0,-1.01637 1.675,-1.36892 7.37513,-1.55229 6.927,-0.222832 10.6349,0.15384 14.84774,1.50831 l 3.16764,1.01844 0.58777,-0.70309 c 0.32327,-0.38669 1.15108,-0.98278 1.83957,-1.32462 2.82152,-1.40096 3.50049,-1.776567 3.97961,-2.201536 0.39513,-0.350489 0.61097,-0.377784 1.01111,-0.12789 0.27981,0.17475 0.7742,0.248305 1.09864,0.163458 0.32444,-0.08485 0.77699,0.001 1.00568,0.190806 0.28607,0.237423 0.52426,0.256967 0.7635,0.06266 0.75532,-0.613504 3.91663,-0.01262 5.49403,1.044255 0.2295,0.153765 0.98058,0.551867 1.66907,0.884687 0.6885,0.33283 1.51631,0.92151 1.83958,1.3082 l 0.58782,0.7031 3.16763,-1.01844 c 4.21284,-1.35447 7.92075,-1.731142 14.84773,-1.5083 5.70015,0.18336 7.37514,0.53591 7.37514,1.55228 0,1.21562 -0.45792,1.27988 -9.43128,1.32351 -8.31109,0.0404 -9.35983,0.12566 -13.44041,1.09275 -0.41607,0.0986 -0.8991,0.35112 -1.07341,0.56115 -0.25084,0.30225 -0.16187,0.44079 0.42689,0.66463 0.40908,0.15553 0.84447,0.28279 0.96752,0.28279 0.12306,0 0.85068,0.49918 1.61696,1.1093 0.96391,0.76748 1.65764,1.64611 2.25131,2.85133 0.93631,1.90087 0.96277,2.73308 0.18364,5.775617 -0.21549,0.84149 -0.4601,1.86458 -0.54359,2.27353 -0.0835,0.40896 -0.47395,1.12642 -0.8677,1.59436 -0.48691,0.57866 -0.6589,1.03043 -0.53769,1.41234 0.098,0.30883 0.27576,0.56152 0.39498,0.56152 0.46363,0 2.25383,-2.00869 2.42694,-2.72315 0.18629,-0.76884 4.06197,-4.82269 5.45553,-5.706327 0.42074,-0.26678 0.76499,-0.67633 0.76499,-0.91011 0,-0.46787 1.81337,-1.34677 2.23768,-1.08454 0.14625,0.0904 0.26592,0.47246 0.26592,0.84904 v 0.68469 l 1.07557,-0.54872 c 0.59157,-0.30179 1.4546,-0.86764 1.91787,-1.25746 0.46326,-0.38981 1.09148,-0.70874 1.39605,-0.70874 0.30456,0 0.7588,-0.31295 1.00942,-0.69545 0.27809,-0.42442 0.71779,-0.69544 1.12829,-0.69544 0.36993,0 0.74107,-0.11075 0.82471,-0.24611 0.0836,-0.13536 0.49789,-0.3113 0.9205,-0.391 1.10796,-0.20891 2.71593,-0.84864 3.25261,-1.29405 0.37827,-0.31394 0.72183,-0.324 1.8861,-0.0552 1.30071,0.30023 1.47523,0.28009 2.0218,-0.23339 0.32901,-0.30909 0.70726,-0.56199 0.84053,-0.56199 0.13328,0 0.50784,-0.24944 0.83235,-0.5543 0.92234,-0.86649 2.85756,-0.99511 4.01939,-0.26716 l 0.95726,0.59976 -0.67549,0.50953 -0.67549,0.50952 0.65147,0.69345 c 0.3583,0.38139 0.56837,0.82789 0.4668,0.99221 -0.2977,0.48172 -1.3195,0.34411 -1.96789,-0.26502 l -0.60014,-0.56381 -1.36504,0.63732 c -0.75077,0.35053 -1.94585,1.23014 -2.65573,1.9547 -0.70988,0.72455 -1.38359,1.31737 -1.49713,1.31737 -0.11355,0 -0.61966,0.43814 -1.1247,0.97363 -0.50503,0.53549 -1.12679,0.973617 -1.38167,0.973617 -0.5416,0 -1.99562,1.47182 -2.13925,2.16544 -0.0742,0.35838 -0.34867,0.46286 -1.1019,0.41944 -0.78986,-0.0455 -1.03333,0.0579 -1.14548,0.48681 -0.10002,0.38243 -0.38215,0.54463 -0.94738,0.54463 -0.97055,0 -1.47256,0.44572 -1.47256,1.30744 0,0.35189 -0.15648,0.64206 -0.34773,0.64483 -0.43096,0.006 -2.15658,2.04862 -2.15399,2.54943 0.002,0.3888 -3.54997,3.84367 -3.95172,3.84367 -0.13014,0 -0.35561,0.31294 -0.50103,0.69543 -0.15192,0.39958 -0.48569,0.69545 -0.78453,0.69545 -0.28608,0 -0.73442,0.23679 -0.99632,0.52619 -0.26751,0.29559 -0.69931,0.46783 -0.98534,0.39303 -0.79757,-0.20857 -1.02379,0.49284 -0.33804,1.04813 0.94966,0.76899 0.77573,1.37079 -0.39618,1.37079 -1.29852,0 -1.13505,0.59803 0.2532,0.92634 0.9765,0.23094 1.33662,0.79351 0.74285,1.16047 -0.18638,0.11519 -0.18613,0.34579 8.4e-4,0.69499 0.30181,0.56394 -0.0525,1.00683 -0.55636,0.69543 -0.153,-0.0945 -0.27818,0.0188 -0.27818,0.25198 0,0.6949 1.01765,1.04712 2.44465,0.84611 1.90291,-0.26804 11.69371,-2.67394 13.07689,-3.2134 0.35144,-0.13705 0.92102,-0.24919 1.26571,-0.24919 0.3447,0 0.74565,-0.10451 0.891,-0.2322 0.14534,-0.12772 2.01679,-0.63823 4.15877,-1.13451 2.14197,-0.49627 4.52041,-1.07703 5.28539,-1.29059 23.52893,-5.54259 41.70523,-15.743367 64.67651,-12.92859 3.75321,0.52562 6.59845,1.10015 9.66783,1.95217 2.3172,0.64323 3.25601,1.07485 5.003,2.30015 2.14021,1.50109 2.15355,1.51823 2.78045,3.56961 0.49196,1.60983 0.56904,2.23792 0.35195,2.86779 -0.1529,0.44358 -0.27798,1.15899 -0.27798,1.5898 0,1.45245 -1.24092,4.62284 -2.76403,7.06177 -0.38219,0.61199 -0.93371,1.55084 -1.22559,2.08635 -5.81331,8.8713 -19.70533,18.55548 -31.64485,18.63795 -1.50555,0 -6.32547,0.52972 -6.60452,0.72586 -0.0522,0.0367 0.24473,1.02395 0.65988,2.19391 0.12425,14.11142 -22.81634,17.71389 -29.21733,15.86148 -0.306,-0.12601 0.16353,0.4841 1.04341,1.35581 1.4433,1.4299 1.70176,1.57695 2.64268,1.50335 0.89121,-0.0697 1.05555,0.008 1.12954,0.52678 0.11885,0.83506 -1.05038,1.58549 -2.10831,1.35312 -0.69409,-0.15245 -0.87691,-0.0432 -1.47221,0.87949 -0.52217,0.80941 -0.88954,1.0738 -1.58522,1.14088 -1.16604,0.11242 -1.58109,-0.67994 -0.67226,-1.28339 0.33273,-0.22097 0.60502,-0.61079 0.60502,-0.86627 0,-0.50878 -2.20116,-2.80579 -2.68871,-2.80579 -0.16673,0 -0.45897,-0.18776 -0.64944,-0.41726 -0.19047,-0.22949 -0.51247,-0.41727 -0.71556,-0.41727 -0.43111,0 -2.65887,-1.45969 -3.17274,-2.07888 -0.19387,-0.2336 -0.49364,-0.42478 -0.66616,-0.42485 -0.17252,-9e-5 -0.8359,-0.60657 -1.47419,-1.34776 l -1.16053,-1.34761 -3.1425,-0.19086 c -2.49103,-0.1513 -3.25964,-0.29787 -3.70759,-0.70707 -0.31081,-0.28392 -1.2536,-0.83903 -2.09508,-1.23356 -1.53657,-0.72044 -3.51939,-1.94579 -5.24316,-3.24019 -0.96757,-0.72655 -3.96909,-4.19912 -5.59033,-6.46765 -0.51938,-0.72675 -0.99897,-1.32134 -1.06576,-1.32134 -0.0668,0 -0.36524,0.30993 -0.66321,0.68874 -0.79999,1.01702 -2.31162,1.34076 -3.82468,0.81911 -0.67453,-0.23255 -1.45652,-0.54597 -1.73777,-0.6965 -0.92942,-0.49741 -2.27618,0.57708 -2.90557,2.31816 -0.23779,0.65782 -0.84681,0.61654 -1.02622,-0.0695 -0.15957,-0.61017 -0.40484,-0.68069 -1.01808,-0.29274 -0.34144,0.21601 -0.29868,0.46042 0.27911,1.59526 0.63704,1.25124 0.74687,1.3352 1.65503,1.26504 2.60293,-0.20108 3.21935,-0.25976 3.4763,-0.33095 0.6195,-0.17161 1.03968,0.0382 2.17881,1.08827 1.12946,1.04109 1.96541,1.38687 4.63657,1.91782 0.78201,0.15545 0.97487,0.32343 0.97996,0.85359 0.004,0.44544 0.23041,0.74258 0.69545,0.91384 0.37901,0.13959 0.93946,0.54254 1.24546,0.89544 0.306,0.3529 0.98912,0.80992 1.51805,1.01559 0.99917,0.38853 2.80364,2.0195 3.33704,3.01618 0.169,0.31577 0.61661,0.65177 0.99469,0.74666 0.37808,0.0948 0.70306,0.28414 0.72218,0.42055 0.0191,0.13641 0.066,0.3732 0.1043,0.5262 0.0382,0.153 0.0852,0.39111 0.1043,0.52915 0.0191,0.13802 0.41031,0.38187 0.86931,0.54188 0.76895,0.26806 1.19612,1.1544 0.55635,1.1544 -0.57972,0 -0.24169,0.52293 0.69546,1.07586 1.10873,0.65417 1.27167,1.34673 0.34771,1.47794 -0.5706,0.081 -0.53718,0.14408 0.37837,0.71344 0.87878,0.54651 1.02467,0.79695 1.16767,2.00432 0.0899,0.75888 0.38209,1.71353 0.64936,2.12142 0.46564,0.71067 0.46404,0.75766 -0.0386,1.12519 -0.2885,0.21095 -0.81356,0.38355 -1.16681,0.38355 -0.35326,0 -0.64228,0.11855 -0.64228,0.26345 0,0.38727 1.2452,2.66262 1.9417,3.54808 0.39167,0.49794 0.5556,1.01153 0.46843,1.46757 -0.0737,0.38585 0.0598,1.02989 0.29691,1.43121 0.30063,0.50891 0.36379,0.97179 0.20877,1.53006 -0.12222,0.44023 -0.24084,0.92561 -0.26357,1.07861 -0.0227,0.153 -0.14667,0.51078 -0.27539,0.79509 -0.14797,0.32679 -0.0574,1.07727 0.24621,2.04047 0.45779,1.45227 0.45707,1.5492 -0.0152,2.07104 -0.31099,0.34365 -0.47944,0.93035 -0.45244,1.57585 0.0981,2.34453 0.29977,4.40469 0.48846,4.98903 0.14426,0.44675 0.0744,0.67116 -0.2478,0.79475 -0.24686,0.0947 -0.44883,0.33768 -0.44883,0.53988 0,0.20219 -0.20636,0.57399 -0.45857,0.8262 -0.42538,0.42538 -0.42555,0.52783 -0.002,1.41544 0.43422,0.91057 0.4299,0.97945 -0.0894,1.42407 -0.37037,0.31711 -0.49434,0.67176 -0.38589,1.10387 0.12668,0.50475 0.008,0.69421 -0.57118,0.91456 -0.59569,0.22648 -0.69951,0.40328 -0.56095,0.95532 0.13236,0.52738 0.0105,0.78191 -0.54995,1.14916 -0.49336,0.32326 -0.71995,0.71916 -0.71995,1.25786 0,0.43237 -0.12911,0.86592 -0.28692,0.96345 -0.16977,0.10492 -0.26431,1.20145 -0.23156,2.68573 0.0441,1.99974 0.14463,2.54129 0.49555,2.67057 0.76857,0.28313 2.9438,2.04199 2.9438,2.38031 0,0.54438 -2.26829,0.20888 -3.55257,-0.52544 -1.44376,-0.8255 -2.94185,-0.87281 -3.89507,-0.12302 -0.83967,0.66049 -2.10029,0.73014 -2.33105,0.12881 -0.10935,-0.28499 0.36968,-0.91263 1.43657,-1.8822 l 1.60063,-1.45461 0.0613,-2.84813 c 0.0563,-2.61248 0.007,-2.92217 -0.59888,-3.74299 -0.36311,-0.49219 -0.84548,-0.99856 -1.07191,-1.12527 -0.22648,-0.12672 -0.41174,-0.48608 -0.41174,-0.7986 0,-0.31251 -0.23824,-0.87109 -0.52944,-1.24128 -0.2912,-0.37021 -0.46718,-0.91125 -0.39106,-1.20232 0.0921,-0.35232 -0.0668,-0.63905 -0.47548,-0.85778 -0.53171,-0.28455 -0.58983,-0.47894 -0.43421,-1.4521 0.13594,-0.85015 0.0652,-1.25009 -0.29083,-1.64346 -0.37666,-0.4162 -0.48464,-1.18199 -0.54146,-3.84006 -0.039,-1.8261 -0.22513,-3.74651 -0.41355,-4.26758 -0.29524,-0.81647 -0.25766,-1.22698 0.27191,-2.97047 l 0.61449,-2.02308 -0.61598,-0.65569 -0.61599,-0.65569 0.87627,-1.77994 c 0.48194,-0.97898 0.87626,-1.91351 0.87626,-2.07675 0,-0.16324 -0.46498,-0.33564 -1.03329,-0.38313 -1.11014,-0.0927 -1.29993,-0.44282 -1.66228,-3.0661 -0.0785,-0.56788 -0.3177,-1.17781 -0.53169,-1.3554 -0.21398,-0.1776 -0.38906,-0.61314 -0.38906,-0.96787 0,-0.35473 -0.13533,-0.7286 -0.30073,-0.83082 -0.16539,-0.1022 -0.22752,-0.47749 -0.13807,-0.83391 0.0895,-0.35642 0.0293,-0.73048 -0.1337,-0.8312 -0.163,-0.10072 -0.41352,-0.45267 -0.55671,-0.78204 -0.14321,-0.32939 -0.36639,-0.78665 -0.49597,-1.01616 -0.72041,-1.27585 -0.87844,-1.75602 -0.87844,-2.66907 0,-0.93372 -0.0505,-0.99486 -0.69006,-0.83436 -0.59335,0.14892 -0.7473,0.0361 -1.09852,-0.80438 -0.33566,-0.80334 -0.55406,-0.97757 -1.22539,-0.97757 -0.44931,0 -1.17548,-0.18701 -1.61371,-0.41556 -0.86481,-0.45102 -1.50008,-0.54139 -1.47888,-0.21034 0.008,0.11474 0.71372,0.64675 1.56971,1.18226 2.25866,1.41298 3.04537,2.62058 3.28924,5.04892 0.11038,1.0991 0.42975,2.37346 0.71669,2.85981 0.28469,0.4825 0.51279,1.24754 0.50689,1.70011 -0.006,0.45257 0.11516,1.56969 0.269,2.4825 0.18838,1.11773 0.18775,1.77045 -0.002,1.99901 -0.19154,0.2308 -0.17938,0.53043 0.038,0.93664 0.25741,0.48098 0.22977,0.6966 -0.14196,1.10735 -0.37548,0.41491 -0.40077,0.62377 -0.13549,1.11945 0.44919,0.83931 -0.0601,1.37828 -0.8413,0.89038 -0.85898,-0.53644 -0.87721,-0.42677 -0.16309,0.98059 1.11943,2.20612 1.52989,3.7315 1.5532,5.77221 0.0358,3.13106 -0.0792,3.87611 -0.61404,3.97912 -0.39856,0.0767 -0.45068,0.29817 -0.31067,1.31966 0.1421,1.03675 0.0869,1.25853 -0.35563,1.42751 -0.28813,0.11005 -0.74416,0.40462 -1.0134,0.6546 -0.46642,0.43307 -0.45658,0.58434 0.20864,3.20671 0.74101,2.92118 0.84802,3.89132 0.45591,4.13366 -0.13324,0.0823 -0.31829,0.52992 -0.41123,0.99464 -0.20422,1.02108 -1.11622,1.44424 -2.6873,1.24684 -0.98733,-0.12407 -1.11557,-0.0689 -1.27012,0.54694 -0.0988,0.39371 0.009,1.04741 0.25341,1.5375 0.5933,1.18927 1.08899,3.58217 0.97549,4.70903 -0.11794,1.17097 -0.83003,1.70193 -1.62048,1.20829 -1.00202,-0.62578 -1.46204,-0.44681 -1.25654,0.48883 0.14328,0.65239 0.0874,0.83454 -0.25608,0.83454 -0.24163,0 -0.43935,-0.14661 -0.43935,-0.32581 0,-0.81053 -0.83348,-1.26875 -1.93978,-1.06644 -0.65592,0.11994 -1.20425,0.0842 -1.37827,-0.0898 -0.50157,-0.50157 -0.63384,-0.009 -0.63722,2.36853 -0.002,1.27193 -0.0675,2.60423 -0.14607,2.96068 -0.17014,0.77224 -1.12019,1.20079 -1.83309,0.82686 -0.37322,-0.19576 -0.65152,-0.13936 -1.03796,0.21035 -0.44657,0.40414 -0.5973,0.42031 -0.9774,0.10483 -0.38127,-0.31643 -0.4896,-0.30116 -0.71448,0.10072 -0.31263,0.55863 -1.031,0.62592 -1.22709,0.11495 -0.0995,-0.25923 -0.81054,-0.34783 -2.56442,-0.31951 -1.3451,0.0217 -2.59404,-0.0918 -2.80205,-0.25459 -0.45404,-0.3554 -2.57218,-0.49719 -2.9619,-0.19825 -0.15353,0.11776 -0.94339,0.4477 -1.75526,0.73318 -1.24718,0.43857 -1.51351,0.45856 -1.71722,0.12896 -0.32922,-0.53269 -4.37879,-0.61319 -4.57916,-0.091 -0.19649,0.51203 -0.91461,0.44549 -1.22756,-0.11373 z m -0.31892,-2.30811 c 0,-0.30601 -0.12519,-0.55636 -0.27819,-0.55636 -0.15299,0 -0.27817,0.25035 -0.27817,0.55636 0,0.30599 0.12518,0.55635 0.27817,0.55635 0.153,0 0.27819,-0.25036 0.27819,-0.55635 z m 20.02885,0 c 0,-0.30601 -0.12518,-0.55636 -0.27818,-0.55636 -0.153,0 -0.27817,0.25035 -0.27817,0.55636 0,0.30599 0.12517,0.55635 0.27817,0.55635 0.153,0 0.27818,-0.25036 0.27818,-0.55635 z"
       style="fill:#030303;stroke-width:0.27817854"
       sodipodi:nodetypes="ccccccccsscscsccscscccccsscscccccscccsccscccccscccsccccscscccccsccsccccsscccsscsccccscscccccccccssccccccsccscccccccccccccsccccscsscsccscscsscccccccccccccccscccccccccsccsccccscccscsccsscccscsccccccccccsscccccscscccsssscsccccscscccsscsccccccccccccscsccccscsscccsccscscccscscccccscccccccccccssscccssccscscccsccccsccsccccssccsccccccsccccccsscscccccccccscsccccccccccccccccsccsccccccsscccccccscccsccccccsscccsscccccccsccccccccccccscccscscccsccscccscccccsccsscsccscsccccccsscccccscccccccccccssssssssss" />
  </g>
</svg>
